# xmcd
#
# Track frame offsets:
#	150
#	15938
#	32665
#	53029
#	71944
#	88898
#	105830
#	121618
#	138345
#	158709
#	177624
#	194578
#
# Disc length: 2820
#
# Revision: 2
# Processed by: cddbd v1.5.1PL2 Copyright (c) Steve Scherf et al.
# Submitted via: kTunes Pro (development) 1.0patch42
#
DISCID=9a0b020c
DTITLE=Various Artist - Karaoke Party - Today's Country Hits
DYEAR=2002
DGENRE=Country
TTITLE0=Lee Greenwood - God Bless the U.S.A.
TTITLE1=Toby Keith - How Do You Like Me Now?
TTITLE2=George Strait and Alan Jackson - Murder on Music Row
TTITLE3=Jessica Andrews - Who I Am
TTITLE4=Diamond Rio - One More Day
TTITLE5=Tim McGraw - Grown Men Don't Cry
TTITLE6=Lee Greenwood - God Bless the U.S.A. (with vocal)
TTITLE7=Toby Keith - How Do You Like Me Now? (with vocal)
TTITLE8=George Strait and Alan Jackson - Murder on Music Row (with vocal)
TTITLE9=Jessica Andrews - Who I Am (with vocal)
TTITLE10=Diamond Rio - One More Day (with vocal)
TTITLE11=Tim McGraw - Grown Men Don't Cry (with vocal)
EXTD=Provided by Bert3K YEAR: 2002
EXTT0=
EXTT1=
EXTT2=
EXTT3=
EXTT4=
EXTT5=
EXTT6=
EXTT7=
EXTT8=
EXTT9=
EXTT10=
EXTT11=
PLAYORDER=
